<?xml version="1.0" encoding="utf-8"?>
<!-- Generator: Adobe Illustrator 18.0.0, SVG Export Plug-In . SVG Version: 6.00 Build 0)  -->
<!DOCTYPE svg PUBLIC "-//W3C//DTD SVG 1.1//EN" "http://www.w3.org/Graphics/SVG/1.1/DTD/svg11.dtd">
<svg version="1.1" id="Layer_1" xmlns="http://www.w3.org/2000/svg" xmlns:xlink="http://www.w3.org/1999/xlink" x="0px" y="0px"
	 viewBox="0 0 460.7 458" enable-background="new 0 0 460.7 458" xml:space="preserve">
<g id="DEj1kj.tif">
	<g>
		<path d="M19.8,239.6c0.6-2,1.3-4,1.9-6c1.5-4.5,2.9-8.9,4.4-13.4c0.3-1,0.2-1.6-0.7-2.2c-4.9-3.5-9.8-7-14.7-10.6
			c-0.5-0.4-1-0.7-1.4-1.5c0.6,0,1.1,0,1.7,0c6,0,12-0.1,18,0c1.5,0,2.2-0.3,2.7-1.9c1.8-5.9,3.8-11.8,5.7-17.7
			c0.1-0.4,0.3-0.8,0.6-1.6c0.3,0.8,0.5,1.3,0.7,1.8c1.9,6,3.9,11.9,5.8,17.9c0.4,1.2,0.9,1.6,2.1,1.6c6.5-0.1,13.1,0,19.6,0
			c0.1,0.2,0.1,0.4,0.2,0.7c-0.4,0.3-0.9,0.7-1.3,1c-4.9,3.6-9.9,7.2-14.8,10.7c-1,0.7-1.2,1.3-0.8,2.5c2,5.9,3.9,11.8,5.8,17.7
			c0.2,0.5,0.3,1,0.6,1.9c-0.6-0.4-1-0.5-1.3-0.8c-4.9-3.6-9.8-7.1-14.6-10.7c-2.3-1.7-2.3-1.7-4.6-0.1c-4.6,3.3-9.1,6.6-13.7,9.9
			c-0.4,0.3-0.9,0.6-1.4,0.9C20,239.7,19.9,239.7,19.8,239.6z"/>
		<path d="M34.2,331.6c0.5-1.6,1-3.3,1.6-4.9c1.6-4.8,3.1-9.7,4.7-14.5c0.4-1,0.1-1.6-0.7-2.2c-5-3.5-9.9-7.1-14.8-10.7
			c-0.4-0.3-0.9-0.7-1.2-1.4c0.6,0,1.1,0,1.7,0c6.2,0,12.3,0,18.5,0c1.2,0,1.6-0.4,2-1.5c1.9-6,3.9-11.9,5.8-17.9
			c0.2-0.5,0.4-1,0.7-1.9c0.4,1.2,0.7,2,1,2.8c1.8,5.6,3.7,11.1,5.4,16.8c0.4,1.3,1,1.7,2.4,1.7c5.9-0.1,11.9,0,17.8,0
			c0.5,0,1.1,0,2.1,0c-0.8,0.7-1.3,1-1.7,1.4c-4.9,3.5-9.8,7.1-14.7,10.6c-1,0.7-1.2,1.3-0.8,2.5c1.9,5.7,3.8,11.5,5.6,17.2
			c0.2,0.7,0.4,1.4,0.7,2.4c-0.7-0.4-1.1-0.6-1.5-0.9c-5.1-3.6-10.3-7.1-15.4-10.8c-1.1-0.8-1.8-0.7-2.9,0.1
			c-4.8,3.5-9.6,7-14.4,10.4c-0.5,0.4-1,0.7-1.5,1C34.4,331.7,34.3,331.6,34.2,331.6z"/>
		<path d="M385.9,401.2c-3.5-2.6-6.6-4.8-9.8-7.1c-2.3-1.6-4.6-3.2-6.8-4.9c-1-0.8-1.6-0.7-2.6,0c-5,3.6-10.1,7.2-15.2,10.7
			c-0.5,0.3-0.9,0.6-1.8,1.2c0.3-0.9,0.4-1.4,0.6-1.9c1.9-6,3.8-11.9,5.8-17.9c0.4-1.2,0.1-1.9-0.9-2.6c-5.3-3.8-10.6-7.6-16.4-11.8
			c1,0,1.6-0.1,2.1-0.1c6.2,0,12.3,0,18.5,0c1.3,0,1.8-0.4,2.2-1.6c1.8-5.8,3.7-11.6,5.6-17.4c0.2-0.6,0.4-1.2,0.8-2.2
			c0.3,0.9,0.5,1.4,0.7,1.9c2,6,3.9,12,5.8,18c0.3,1,0.8,1.4,1.9,1.4c6,0,12.1,0,18.1,0c0.5,0,1.1,0,2.1,0c-0.8,0.7-1.3,1-1.7,1.4
			c-4.9,3.6-9.9,7.2-14.8,10.7c-0.9,0.6-1,1.2-0.7,2.2c2,5.9,3.9,11.9,5.8,17.9C385.5,399.6,385.6,400.2,385.9,401.2z"/>
		<path d="M320.1,25.5c0.4,1.3,0.8,2.5,1.3,3.8c1.7,5.1,3.4,10.2,5,15.3c0.4,1.3,0.9,1.7,2.3,1.7c6.5-0.1,13,0,19.4,0
			c-0.3,0.2-0.7,0.6-1.1,0.9c-5,3.6-9.9,7.3-14.9,10.8c-1.4,1-1.5,1.8-1,3.3c2,5.7,3.8,11.5,5.6,17.2c0.2,0.5,0.3,1.1,0.6,2
			c-0.8-0.5-1.3-0.8-1.7-1.2c-4.9-3.5-9.8-7-14.7-10.6c-1-0.7-1.7-0.8-2.8,0c-4.8,3.6-9.7,7-14.5,10.5c-0.5,0.3-1,0.7-1.9,1.3
			c0.3-1.1,0.5-1.6,0.6-2.2c1.9-5.8,3.7-11.6,5.7-17.4c0.5-1.3,0.2-2-0.9-2.7c-4.9-3.4-9.7-7-14.6-10.5c-0.4-0.3-0.9-0.7-1.3-1.4
			c0.6,0,1.1,0,1.7,0c6.1,0,12.2-0.1,18.3,0c1.5,0,2-0.5,2.4-1.8c2-6.3,4.1-12.7,6.1-19C319.8,25.5,319.9,25.5,320.1,25.5z"/>
		<path d="M391.2,286.9c6.6,0,13.2-0.1,19.8,0c1.5,0,2.1-0.5,2.5-1.9c1.8-5.8,3.7-11.6,5.6-17.4c0.2-0.5,0.4-1,0.7-1.9
			c0.3,0.7,0.5,1.1,0.6,1.5c2,6,4,12,5.8,18c0.4,1.3,1,1.6,2.2,1.6c6-0.1,12,0,17.9,0c0.5,0,1.1,0,1.6,0c0,0.1,0.1,0.3,0.1,0.4
			c-0.5,0.3-0.9,0.7-1.4,1c-4.9,3.6-9.9,7.2-14.8,10.7c-0.9,0.6-1.1,1.2-0.7,2.2c2,5.9,3.9,11.8,5.8,17.7c0.2,0.6,0.4,1.2,0.3,2
			c-5.8-4.1-11.5-8.3-17.4-12.5c-5.8,4.2-11.6,8.3-17.8,12.8c0.3-1,0.4-1.6,0.6-2.1c1.9-5.9,3.8-11.8,5.8-17.7
			c0.4-1.2,0.1-1.8-0.9-2.4c-5.1-3.5-10.2-7.1-15.3-10.7c-0.4-0.3-0.9-0.6-1.3-1C391.1,287.1,391.2,287,391.2,286.9z"/>
		<path d="M164.9,415.2c0.7,0,1.3,0,2,0c6,0,12.1,0,18.1,0c1.2,0,1.8-0.3,2.1-1.5c1.8-5.8,3.7-11.6,5.6-17.4
			c0.2-0.6,0.4-1.3,0.8-2.3c0.4,1,0.6,1.7,0.8,2.3c1.9,5.8,3.8,11.6,5.6,17.4c0.4,1.2,0.9,1.6,2.1,1.5c5.8-0.1,11.6,0,17.5,0
			c0.5,0,1.1,0,2.1,0c-0.7,0.6-1,0.9-1.4,1.2c-5,3.6-10,7.2-15,10.8c-1,0.7-1.3,1.3-0.8,2.5c2,5.9,3.9,11.8,5.8,17.7
			c0.2,0.5,0.3,1.1,0.6,2c-0.7-0.4-1.1-0.6-1.4-0.9c-5-3.6-10.1-7.2-15.1-10.9c-0.9-0.7-1.5-0.7-2.5,0c-4.9,3.6-9.9,7.2-14.8,10.7
			c-0.4,0.3-0.9,0.6-1.7,1.2c0.2-0.9,0.4-1.4,0.5-1.9c1.9-6,3.9-12,5.9-18c0.3-1,0.2-1.6-0.7-2.2c-5-3.5-9.9-7.1-14.9-10.7
			c-0.4-0.3-0.9-0.7-1.3-1C164.9,415.5,164.9,415.3,164.9,415.2z"/>
		<path d="M256.1,27.5c-2.3,1.7-4.3,3.1-6.2,4.5c-3.4,2.5-6.8,5-10.2,7.3c-1.1,0.7-1.2,1.4-0.8,2.6c2,5.8,3.8,11.7,5.7,17.5
			c0.2,0.6,0.3,1.1,0.7,2.2c-6.2-4.4-11.9-8.6-17.8-12.8c-5.8,4.2-11.6,8.4-17.8,12.8c0.3-0.9,0.4-1.4,0.5-1.9
			c1.9-5.9,3.8-11.8,5.8-17.7c0.5-1.3,0.1-2-0.9-2.7c-4.9-3.4-9.6-6.9-14.4-10.4c-0.5-0.4-1-0.7-1.4-1.5c0.5,0,1,0,1.5,0
			c6.2,0,12.3-0.1,18.5,0c1.5,0,2-0.5,2.4-1.8c1.8-5.7,3.6-11.3,5.5-16.9c0.2-0.7,0.5-1.4,0.9-2.5c0.4,1,0.6,1.5,0.8,2.1
			c1.9,5.9,3.9,11.8,5.7,17.7c0.3,1,0.8,1.4,1.9,1.4c5.9-0.1,11.9,0,17.8,0C254.6,27.4,255.1,27.5,256.1,27.5z"/>
		<path d="M50.1,150.2c1.6-5,3.2-10,4.9-15c0.5-1.5,0.9-3.1,1.5-4.6c0.4-1,0.1-1.5-0.7-2.1c-5-3.6-10-7.2-15-10.8
			c-0.4-0.3-0.8-0.7-1.6-1.2c0.9,0,1.5-0.1,2-0.1c6.2,0,12.4,0,18.6,0c1.2,0,1.6-0.4,2-1.5c1.9-5.9,3.8-11.8,5.7-17.7
			c0.2-0.6,0.4-1.1,0.8-2.1c1.5,4.7,2.9,8.8,4.3,13c0.7,2.2,1.5,4.4,2.1,6.7c0.3,1.3,1,1.6,2.3,1.6c6.3-0.1,12.6,0,19.5,0
			c-0.7,0.6-1.1,0.9-1.5,1.2c-4.8,3.5-9.6,7-14.5,10.4c-1.4,1-1.7,1.7-1.2,3.4c2,5.8,3.8,11.6,5.7,17.4c0.1,0.4,0.2,0.8,0.5,1.7
			c-0.8-0.5-1.3-0.8-1.7-1.1c-4.9-3.5-9.7-7-14.5-10.6c-1.2-0.9-1.9-0.8-3,0.1c-4.8,3.5-9.6,7-14.4,10.5c-0.5,0.4-1,0.7-1.5,1
			C50.3,150.3,50.2,150.2,50.1,150.2z"/>
		<path d="M109.3,52.4c0.9,0,1.4-0.1,2-0.1c6.1,0,12.2,0,18.3,0c1.4,0,2-0.4,2.5-1.7c1.8-5.8,3.7-11.6,5.6-17.4
			c0.2-0.6,0.4-1.1,0.8-2.1c1.3,4,2.5,7.5,3.6,11.1c0.9,2.8,1.9,5.6,2.7,8.5c0.4,1.3,0.9,1.7,2.3,1.7c5.8-0.1,11.6,0,17.5,0
			c0.5,0,1.1,0,2.1,0c-0.8,0.6-1.2,1-1.6,1.3c-4.8,3.5-9.6,7-14.5,10.4c-1.5,1-1.6,1.9-1.1,3.4c1.9,5.6,3.7,11.3,5.5,16.9
			c0.2,0.6,0.3,1.2,0.2,2c-5.8-4.2-11.5-8.3-17.4-12.6c-5.8,4.2-11.6,8.4-17.8,12.9c0.3-0.9,0.4-1.4,0.6-1.9
			c1.9-6,3.8-11.9,5.8-17.9c0.4-1.1,0.3-1.8-0.8-2.5c-5-3.5-9.9-7.1-14.9-10.7C110.4,53.3,110,52.9,109.3,52.4z"/>
		<path d="M421.2,107c-0.8,0.7-1.2,1-1.7,1.3c-5,3.6-10,7.2-15,10.8c-0.9,0.6-1.1,1.2-0.7,2.2c2.2,6.5,4.2,12.9,6.5,20
			c-0.9-0.6-1.3-0.9-1.8-1.2c-5-3.6-10-7.2-14.9-10.8c-0.9-0.6-1.5-0.6-2.3,0c-4.9,3.6-9.9,7.2-14.9,10.8c-0.4,0.3-0.9,0.6-1.6,1.1
			c0.2-0.8,0.3-1.3,0.5-1.8c1.9-6,3.9-12,5.9-18c0.3-1,0.2-1.6-0.7-2.2c-5-3.6-10-7.2-15-10.8c-0.4-0.3-0.8-0.6-1.7-1.3
			c1.1,0,1.6,0,2.1,0c6.2,0,12.4,0,18.6,0c1.2,0,1.6-0.3,2-1.4c1.8-5.8,3.7-11.6,5.6-17.4c0.2-0.7,0.5-1.3,0.9-2.5
			c1.4,4.2,2.6,8,3.8,11.7c0.9,2.7,1.8,5.4,2.6,8.1c0.3,1.1,0.9,1.4,2,1.4c5.9-0.1,11.7,0,17.6,0C419.6,107,420.1,107,421.2,107z"/>
		<path d="M268.3,445.9c0.5-1.5,0.8-2.6,1.1-3.7c1.7-5.4,3.5-10.7,5.3-16.1c0.4-1.1,0.2-1.7-0.8-2.3c-5-3.5-9.9-7.1-14.8-10.7
			c-0.4-0.3-0.9-0.7-1.6-1.2c0.9-0.1,1.4-0.1,1.9-0.1c6.2,0,12.4,0,18.6,0c1.2,0,1.7-0.4,2.1-1.6c1.9-6.1,3.9-12.1,5.9-18.2
			c0.1-0.4,0.3-0.7,0.5-1.4c0.3,0.7,0.5,1.1,0.6,1.5c2,6.1,4,12.1,5.9,18.2c0.3,1.1,0.8,1.5,2,1.5c5.9-0.1,11.7,0,17.6,0
			c0.5,0,1.1,0,2,0.1c-0.7,0.6-1.1,0.9-1.5,1.2c-4.9,3.5-9.8,7.1-14.7,10.6c-1.2,0.8-1.3,1.5-0.9,2.8c2.1,6.3,4.2,12.7,6.4,19.6
			c-0.8-0.6-1.3-0.9-1.8-1.2c-5-3.6-10-7.2-14.9-10.8c-0.9-0.6-1.5-0.6-2.3,0c-4.9,3.6-9.9,7.2-14.8,10.7
			C269.6,445,269.1,445.3,268.3,445.9z"/>
		<path d="M125,408.4c-1.9-1.3-3.7-2.7-5.6-4c-3.5-2.5-7-5-10.5-7.6c-1-0.8-1.7-0.8-2.7,0c-4.9,3.6-9.8,7.1-14.7,10.6
			c-0.4,0.3-0.9,0.6-1.7,1.2c0.2-0.8,0.3-1.3,0.4-1.7c1.9-6,3.8-11.9,5.8-17.9c0.4-1.2,0.2-1.9-0.8-2.6c-4.9-3.5-9.8-7.1-14.7-10.6
			c-0.4-0.3-0.9-0.7-1.6-1.2c0.9-0.1,1.4-0.1,1.9-0.1c6.2,0,12.3-0.1,18.5,0c1.4,0,1.9-0.5,2.3-1.7c1.8-5.9,3.8-11.7,5.7-17.6
			c0.2-0.5,0.4-1,0.7-1.9c0.3,0.9,0.5,1.5,0.7,2c1.9,5.9,3.9,11.8,5.7,17.7c0.3,1.1,0.9,1.5,2,1.5c6.4-0.1,12.7,0,19.7,0
			c-0.8,0.7-1.2,1-1.7,1.3c-4.9,3.6-9.9,7.2-14.8,10.7c-1,0.7-1.1,1.2-0.8,2.3c2,5.9,3.9,11.8,5.8,17.7c0.2,0.5,0.3,1.1,0.5,1.6
			C125.1,408.2,125.1,408.3,125,408.4z"/>
		<path d="M444.7,227.4c-5.2-3.7-10.4-7.4-15.5-11.2c-1.5-1.1-2.4-1.1-3.8,0c-4.6,3.5-9.4,6.8-14.1,10.2c-0.4,0.3-0.9,0.6-1.7,1.2
			c0.3-0.9,0.4-1.5,0.6-2c1.9-5.8,3.8-11.7,5.7-17.5c0.4-1.3,0.3-1.9-0.8-2.7c-4.9-3.4-9.6-6.9-14.4-10.4c-0.5-0.4-1-0.7-1.9-1.4
			c1,0,1.6-0.1,2.1-0.1c6.2,0,12.3,0,18.5,0c1.2,0,1.8-0.3,2.1-1.5c1.9-5.9,3.8-11.8,5.7-17.7c0.2-0.5,0.4-1,0.7-1.9
			c0.3,0.7,0.5,1.1,0.6,1.5c2,6.1,4,12.1,5.9,18.2c0.3,1.1,0.8,1.5,2,1.4c5.9-0.1,11.7,0,17.6,0c0.5,0,1.1,0,2,0
			c-0.8,0.6-1.2,1-1.6,1.3c-5,3.6-10,7.2-15,10.8c-0.9,0.6-1,1.2-0.7,2.2c2,5.9,3.9,11.8,5.8,17.7c0.2,0.6,0.3,1.2,0.5,1.7
			C444.9,227.2,444.8,227.3,444.7,227.4z"/>
	</g>
</g>
</svg>
