<?xml version="1.0" encoding="utf-8"?>
<!-- Generator: Adobe Illustrator 18.0.0, SVG Export Plug-In . SVG Version: 6.00 Build 0)  -->
<!DOCTYPE svg PUBLIC "-//W3C//DTD SVG 1.1//EN" "http://www.w3.org/Graphics/SVG/1.1/DTD/svg11.dtd">
<svg version="1.1" id="Layer_1" xmlns="http://www.w3.org/2000/svg" xmlns:xlink="http://www.w3.org/1999/xlink" x="0px" y="0px"
	 viewBox="0 0 223.3 340.6" enable-background="new 0 0 223.3 340.6" xml:space="preserve">
<g>
	<path fill="#FFFFFF" d="M45.5,266.8l-30-38.3c0,0,32.7-30.3,33.2-30.7c-13-13.3-25.8-26.4-38.9-39.9c11.8-4.3,23.4-8.5,35.4-12.8
		c-1-0.9-28.4-24.2-28.4-24.2l32.4-28.2c0,0-27.8-74.9-28.8-78.5c1,0.5,68.2,42.6,69.2,42.3c0.8-0.2,25.7-29.6,28.6-33.2
		c1.8,2,21,23.4,21.4,23.6c0.6,0.2,77.8-31.5,79.1-31.9c-0.3,0.6-35.3,69.2-35.3,69.2s24,26.9,24.9,28
		c-10.5,15.7-21.1,31.3-31.8,47.3c11.3,4.6,33.3,14.1,33.3,14.3c-11.4,12.4-22.8,24.7-34.3,37.2c10.3,10.9,21.3,21.4,31.5,32.6
		c-0.1,0.2-23.4,7.4-35.4,10.8c12.9,26.7,25.7,53.2,38.6,79.8c-0.1,0.1-63-36.8-63-36.8s-13.1,28.8-13.7,30.2
		c-2.8-2.2-41.2-33-41.2-33S6.4,329.9,5.8,330.1C5.7,330,45.5,266.8,45.5,266.8z"/>
</g>
</svg>
