<?xml version="1.0" encoding="utf-8"?>
<!-- Generator: Adobe Illustrator 18.0.0, SVG Export Plug-In . SVG Version: 6.00 Build 0)  -->
<!DOCTYPE svg PUBLIC "-//W3C//DTD SVG 1.1//EN" "http://www.w3.org/Graphics/SVG/1.1/DTD/svg11.dtd">
<svg version="1.1" id="Layer_3" xmlns="http://www.w3.org/2000/svg" xmlns:xlink="http://www.w3.org/1999/xlink" x="0px" y="0px"
	 viewBox="0 0 376.5 309.6" enable-background="new 0 0 376.5 309.6" xml:space="preserve">
<g>
	<g>
	</g>
</g>
<g>
	<path d="M210.6,15.2c0.8,9.5-2.7,15.2-7.1,21.7c-5.4,8.1-15.6,17.3-18.7,20.4c-5.8,5.7-5.2,12.3-1.6,16.2c4.5,5,12.2,6.4,19.3,1.5
		c5.7-3.9,10.8-9,15.1-14.5c19.6-24.6,52.8-35,85.5-26.8c-15.1,4.2-18.8,6.6-23.8,9.3c-6.1,3.2-12.5,9.9-16.1,15.7
		c-5.3,8.5-6.8,26.2,5.5,33.3c5.6,3.2,10.3,1.1,14.5-3.1c5.3-5.3,10.2-11.1,15.9-15.9c19.7-16.5,43.2-17.5,64.5-3.2
		c0.9,0.6,1.7,1.4,4.3,3.5c-24.5-4.6-35.3,6.3-42.6,18.2c-5.7,9.3-9.7,19.7-13.2,30.1c-6.1,18.4-17.7,29.9-36.9,33.8
		c-10.1,2.1-20.1,4.7-29.9,7.8c-9.7,3.1-13.2,8.7-11.5,15.8c2.1,8.4,8.4,12.6,18.5,10.3c10.2-2.4,19.9-7,30.1-9.6
		c6.2-1.6,13.2-2.8,19.5-1.6c7.3,1.5,10.6,3.9,13.5,6.9c-13.9-2.5-25.9,4.3-31.5,7.6c-5.9,3.6-10.6,8.3-12.6,10.6
		c-6.2,7-5.4,6.6-11.3,14.1c-14.4,19.8-32.2,40.4-54,55c-57.9,38.8-136.1,24.4-174.9-32c-42.2-61.4-27.2-154.7,51-191.1
		c14.9-6.9,28.1-9.5,49.2-10.7c9-0.5,11.9-0.5,20.4-0.3C174.7,39.5,196.5,38,210.6,15.2z"/>
	<path d="M212.9,141.8c1.3-7.7,2.5-14.9,3.8-22c0.6-0.3,1.3-0.6,1.9-0.9c1.1,1.6,3.1,3.1,3.3,4.8
		C222.8,131.8,219.1,139.7,212.9,141.8z"/>
	<path d="M142.8,242.3c0-6.8,3.5-11.3,8.7-10.3c2.4,0.5,5.6,3.5,6.1,5.9c1.1,5.4-4.2,11-9.2,10.9C143.7,248.8,142.5,246,142.8,242.3
		z"/>
</g>
</svg>
