<?xml version="1.0" encoding="utf-8"?>
<!-- Generator: Adobe Illustrator 18.0.0, SVG Export Plug-In . SVG Version: 6.00 Build 0)  -->
<!DOCTYPE svg PUBLIC "-//W3C//DTD SVG 1.1//EN" "http://www.w3.org/Graphics/SVG/1.1/DTD/svg11.dtd">
<svg version="1.1" id="Layer_1" xmlns="http://www.w3.org/2000/svg" xmlns:xlink="http://www.w3.org/1999/xlink" x="0px" y="0px"
	 viewBox="0 0 383 140" enable-background="new 0 0 383 140" xml:space="preserve">
<g>
	<path d="M378.1,9.7c-10,4.3-20,8.7-30,13c-77,33-153.9,66.1-230.9,98.9c-18.1,7.7-36.7,13.9-56.8,13.6
		c-29.8-0.5-46.5-21.6-40.1-50.7c4.7-21.2,16.4-38.7,29.8-55.2c6.1-7.5,12.6-14.6,19.4-22.5c-3.2,8.1-6.5,15.3-9,22.8
		c-3.1,9.3-4,18.9-1.2,28.5c4,13.7,16.2,22,32.4,22.8c14.9,0.7,29-3.6,43.1-7.4c80.1-21.3,160.2-42.7,240.3-64
		c0.9-0.2,1.9-0.4,2.8-0.6C378,9.2,378,9.5,378.1,9.7z"/>
</g>
</svg>
