<?xml version="1.0" encoding="utf-8"?>
<!-- Generator: Adobe Illustrator 18.0.0, SVG Export Plug-In . SVG Version: 6.00 Build 0)  -->
<!DOCTYPE svg PUBLIC "-//W3C//DTD SVG 1.1//EN" "http://www.w3.org/Graphics/SVG/1.1/DTD/svg11.dtd">
<svg version="1.1" id="Layer_1" xmlns="http://www.w3.org/2000/svg" xmlns:xlink="http://www.w3.org/1999/xlink" x="0px" y="0px"
	 viewBox="0 0 500 500" enable-background="new 0 0 500 500" xml:space="preserve">
<g>
	<path d="M414.1,216.8c1.5,1.2-1.4,3.6-3.1,4.8c-17.6,10.4-35.3,20.8-52.9,31c-10.5,6.1-20.9,12.4-31.4,18.4c-3.2,1.9-4.2,4-4,7.6
		c2.1,27.6,4.1,55.2,6.2,82.8c0.1,1.4,0.1,2.8,0.3,4c0.5,3.2-0.9,4.4-4.1,4.2c-14.5-0.9-29.1-1.4-43.6-2.4c-2.4-0.1-5-1.5-6.7-3
		c-12-10.5-23.9-21.1-35.6-31.8c-2.5-2.2-4.5-2.5-7.4-0.6c-21.2,13.4-42.6,26.5-63.9,39.9c-2.9,1.8-5.6,2.5-9,1.8
		c-11.2-2.2-22.6-4.1-34-6.4c-2.2-0.4-4.2-1.5-6.9-2.4c1-1.8,1.6-3,2.4-4.2c16.1-28.1,32.2-56.2,48.6-84.2c1.8-3.1,1.5-4.6-1.1-7
		c-20.2-17.8-40.2-35.8-60.4-53.8c-1.6-1.5-3.4-2.9-5-4.2c0.1-0.4,0.4-0.8,0.5-1.1c1.5-0.1,3-0.1,4.5-0.2c31.8,0,63.4-0.1,95.1,0.1
		c3.3,0,5-1,6.6-3.9c17.8-31,35.6-61.9,53.5-92.9c1.5-2.6,2.9-3.8,6.2-3.2c12.5,2,25.1,3.6,37.8,5.4c3.8,0.5,4.1,3.4,4.4,6.2
		c1,12.2,1.9,24.4,2.9,36.6c1.2,15.9,2.6,31.8,3.6,47.6c0.2,3.2,1.5,4.1,4.5,4.1c12.9-0.1,25.8,0.4,38.6-0.1
		c16.2-0.6,32.2,1.2,48,5.2C410.2,215.6,413.6,216.4,414.1,216.8z M274.2,350.9c-0.1-2.9-0.2-4.8-0.4-6.6
		c-1.9-23.8-3.6-47.6-5.6-71.4c-0.2-2.8,0.6-4.4,3-5.9c23.8-14.6,75.9-47.1,75.9-47.1s-52.9-0.4-76.6-0.4c-5.5,0-6.2-0.9-6.2-6.1
		c0-25.9,0-51.8,0.1-77.5c0-1.5-0.1-3-0.2-4.5c-1.6,0.9-33.8,56-48.9,82.6c-2.2,4-4.8,5.6-9.5,5.6c-24.2-0.2-48.5-0.1-72.8-0.1
		c-1.6,0-6.5,0-6.5,0s3.7,3.8,5,4.9c15.8,14,31.4,28.1,47.1,42.1c4,3.6,4.1,4,1.4,8.6c-13.1,22.8-26.2,45.4-39.2,68.1
		c-0.8,1.2-1.4,2.6-2,4c4.4-1.6,50.7-29.9,73.8-44.3c3.6-2.2,5.8-1.7,8.8,0.9c16.1,14.6,32.5,29,48.7,43.5
		C271.1,348.4,272.2,349.2,274.2,350.9z"/>
	<path fill="#FFFFFF" d="M138.9,347.6c0.6-1.4,1.2-2.8,2-4c13.1-22.8,26.2-45.4,39.2-68.1c2.8-4.6,2.6-5-1.4-8.6
		c-15.6-14.1-31.4-28.1-47.1-42.1c-1.2-1.1-5-4.9-5-4.9s4.9,0,6.5,0c24.2,0,48.5-0.1,72.7,0.1c4.8,0,7.3-1.6,9.5-5.6
		c15.1-26.6,47.3-81.8,48.9-82.6c0.1,1.5,0.2,3,0.2,4.5c0,25.9,0,51.8-0.1,77.5c0,5.2,0.8,6.1,6.2,6.1c23.8,0,76.6,0.1,76.6,0.1
		s-52.1,32.9-75.9,47.5c-2.5,1.5-3.3,3-3,5.9c1.9,23.8,3.8,47.6,5.6,71.4c0.1,1.9,0.2,3.6,0.4,6.6c-1.9-1.6-3-2.5-4.1-3.5
		c-16.2-14.5-32.6-29-48.8-43.5c-3-2.6-5.1-3.1-8.8-0.9"/>
</g>
</svg>
