<?xml version="1.0" encoding="utf-8"?>
<!-- Generator: Adobe Illustrator 18.0.0, SVG Export Plug-In . SVG Version: 6.00 Build 0)  -->
<!DOCTYPE svg PUBLIC "-//W3C//DTD SVG 1.1//EN" "http://www.w3.org/Graphics/SVG/1.1/DTD/svg11.dtd">
<svg version="1.1" id="Layer_1" xmlns="http://www.w3.org/2000/svg" xmlns:xlink="http://www.w3.org/1999/xlink" x="0px" y="0px"
	 viewBox="0 0 477.6 402.5" enable-background="new 0 0 477.6 402.5" xml:space="preserve">
<g>
	<path d="M448.8,148.6c-0.9,0-1.9,0-2.8,0c-31.9-1.5-63.7-3-95.6-4.6c-16.5-0.8-29.9,5.3-40.5,17.7c-13.1,15.4-26.2,30.8-39.2,46.2
		c-3.8,4.5-5.9,4.9-11.3,2.3c-67.8-33.2-135.5-66.5-203.3-99.7c-4.9-2.4-9.8-4.8-14.7-7.1c-6.9-3.3-8.5-6.4-6.9-13.9
		c2.1-9.9,4.4-19.8,6.5-29.7c1.9-8.8,3.8-17.5,5.6-26.3c1.3-6,4.9-9.4,10.9-10.1c3.6-0.4,7.2-0.6,10.8-0.5c30.5,1.4,61,2.7,91.5,4.6
		c14.8,0.9,28.8,5.5,42.3,11.5c40.1,17.8,80.2,35.5,120.3,53.2c41.3,18.3,82.5,36.5,123.8,54.8c0.9,0.4,1.7,0.8,2.6,1.2
		C448.9,148.3,448.9,148.5,448.8,148.6z"/>
	<path d="M407.4,153.2c0,2.4,0.1,4.6,0,6.8c-0.8,14.6-1.7,29.1-2.6,43.7c-0.1,1.2-0.3,2.6-0.9,3.6c-9.8,17.2-19.6,34.3-29.4,51.4
		c-3.4,5.9-8.6,8.5-15.4,8.3c-29.3-0.9-58.5-1.7-87.8-2.6c-0.8,0-1.6-0.1-2.4-0.2c-6-0.8-7.6-2.8-7.5-8.8c0.2-9.1,0.5-18.1,0.7-27.2
		c0-1.9,0.6-3,2.4-4c2.3-1.3,4.5-3.1,6.2-5.2c14.8-17.8,29.3-35.8,44.2-53.5c8.8-10.5,20.2-16.1,34.1-15.6c19,0.8,38,1.8,57,2.7
		C406.4,152.9,406.9,153.1,407.4,153.2z M328.1,232.5C328.1,232.5,328.1,232.5,328.1,232.5c7.4,0.3,14.9,0.7,22.3,0.9
		c6.4,0.2,8.6-1.6,10.4-7.7c1.5-5.2,3-10.4,4.6-15.7c2.5-8.3,5.1-16.6,7.3-25c1.4-5.3-0.4-7.5-5.9-7.8c-5.2-0.3-10.3-0.6-15.5-0.8
		c-10.5-0.3-21-0.7-31.5-0.8c-5.7-0.1-9.2,2.4-10.7,7.4c-3.9,13.1-7.8,26.2-11.4,39.4c-1.8,6.3,0.2,8.8,6.8,9.1c0.6,0,1.3,0,1.9,0.1
		C313.6,232,320.8,232.2,328.1,232.5z"/>
	<path d="M55.8,390c1.5-6.9,3.1-13.5,4.5-20.1c1.1-4.9,2.1-9.7,3-14.6c0.3-1.7,1-2.6,2.7-3.3c32.2-13.2,64.4-26.4,96.6-39.7
		c14.5-6,29-12,43.5-17.9c1.8-0.7,2.5-1.7,2.4-3.6c-0.2-3.2-0.1-6.3,0-9.5c0-0.7,1-1.9,1.5-1.9c8.5-0.1,17,0,25.6,0
		c0.2,0,0.3,0.2,0.8,0.4c0,5.3,0.1,10.7-0.1,16.1c0,0.7-1.2,1.7-2.1,2.1c-15.7,8-31.3,15.9-47,23.9c-17.7,9-35.4,18-53.1,26.9
		c-3.1,1.6-4.8,3.8-5.5,7.2c-2,9.6-4.1,19.1-6.2,28.7c-0.9,4.2-2.5,5.6-6.7,5.6c-19.4,0.1-38.8,0-58.2,0
		C57,390.2,56.6,390.1,55.8,390z"/>
	<path d="M99.4,148.3c1.3,0.6,2.2,1,3,1.4c49.2,24.2,98.3,48.5,147.6,72.5c4.4,2.2,6.2,4.5,5.8,9.5c-0.7,8.6-0.6,17.2-0.9,26.2
		c-1.5-0.7-2.8-1.3-4-1.9c-46.7-23.7-93.3-47.6-140.2-70.9c-7.8-3.9-11.1-9.3-11.3-17.4C99.3,161.4,99.4,155.1,99.4,148.3z"/>
	<path d="M33.4,267.4c3.2,0,6.3,0,9.6,0c3.4,19.5,6.9,38.9,10.3,58.5c12.3-4.2,24.3-8.4,36.3-12.5c22.6-7.8,45.2-15.6,67.9-23.3
		c2.3-0.8,3.3-1.7,3.2-4.3c-0.2-6.6-0.1-6.6,6.7-6.6c10.5,0,21,0,31.5,0c1,0,2,0,3.3,0c0,3.1,0.1,6-0.1,8.8
		c-0.1,0.6-1.3,1.4-2.1,1.7c-24.4,10-48.8,19.9-73.2,29.9c-23.6,9.7-47.2,19.4-70.9,29.1c-1.6,0.7-2.5,1.5-2.9,3.4
		c-2.5,12-5.2,23.9-7.7,35.9c-0.3,1.6-0.8,2.3-2.6,2.3c-3.1-0.1-6.1,0-9.4,0C33.4,349.3,33.4,308.5,33.4,267.4z"/>
	<path d="M124.8,293.9c-21.1,6.9-42,13.8-63.1,20.7c-3-15.9-6-31.4-9-47.2c2.4,0,4.4,0,6.5,0c17.7,0.1,35.3,0.3,53,0.4
		c4.8,0,5.1,0.4,6.5,5.1C120.6,279.8,122.7,286.6,124.8,293.9z"/>
	<path d="M403.7,221.1c0.2-0.4,0.2-0.7,0.4-0.9c5.9-8.5,7.5-18.1,7.8-28.3c0.3-11.9,1.2-23.7,1.9-35.6c0.1-0.9,0.2-1.8,0.3-2.9
		c1.1,0,2.1,0,3.1,0c15.7,0.7,31.3,1.4,47,2.3c1.4,0.1,3.4,0.8,3.8,1.8c0.4,1-0.4,3-1.3,4c-8.5,10.1-17.1,20.2-25.7,30.2
		c-8.1,9.5-16.1,19.1-24.2,28.7C412.8,225.2,408.6,225.4,403.7,221.1z"/>
	<path d="M198.2,236.1c5.4,2.7,10.8,5.4,16.1,8.2c6.7,3.4,13.4,6.8,20.1,10.3c0.9,0.5,1.7,1.8,1.8,2.8c0.3,2.2,0.1,4.5,0.1,7.1
		c-1.1,0.1-2.1,0.2-3,0.2c-23.2,0-46.4,0-69.6,0.1c-2.3,0-3.2-0.5-3.1-3c0.2-3.3,0.1-6.6,0.1-10C179.9,257,183.4,255.6,198.2,236.1z
		"/>
	<path d="M93,167c-5.5-2.9-10.6-5.6-15.7-8.4c-9.2-4.9-18.3-9.9-27.5-14.7c-3-1.5-4.7-3.7-4.9-6.9c-0.2-5.3-0.1-10.6-0.1-16.2
		c1.1,0.5,1.9,0.8,2.7,1.2c14.4,7.3,28.9,14.7,43.3,22c1.6,0.8,2.2,1.7,2.2,3.5C92.9,153.7,93,160.1,93,167z"/>
	<path d="M192.4,233.2c-3.1,5.9-6.7,10.6-12.3,13.5c-7,3.6-14.9,1.9-21-4.4c-7-7.3-10.1-16.4-11.6-26.1c-0.3-1.8-0.4-3.6-0.7-6.1
		C162.2,217.9,177.1,225.4,192.4,233.2z"/>
</g>
</svg>
